<?xml version="1.0" encoding="UTF-8"?>
<svg version="1.1" xmlns="http://www.w3.org/2000/svg" width="1024" height="1024">
<path d="M0 0 C5.87282289 3.46706331 11.82574632 6.5912013 17.98852539 9.51513672 C20.31787109 10.79443359 20.31787109 10.79443359 21.31787109 12.79443359 C22.97062927 13.49487106 24.64029692 14.15571056 26.31787109 14.79443359 C28.07255669 15.71140925 29.81140928 16.65907809 31.53662109 17.63037109 C32.54176758 18.1946582 33.54691406 18.75894531 34.58251953 19.34033203 C35.65018555 19.94393555 36.71785156 20.54753906 37.81787109 21.16943359 C39.46964355 22.09804199 39.46964355 22.09804199 41.15478516 23.04541016 C46.60273641 26.11311251 52.0381676 29.20162361 57.45849609 32.31787109 C58.40660156 32.86266113 59.35470703 33.40745117 60.33154297 33.96875 C62.11602778 34.99632539 63.8986746 36.02710123 65.67919922 37.06152344 C69.48195573 39.25489362 73.15611775 41.33951169 77.31787109 42.79443359 C77.31787109 43.45443359 77.31787109 44.11443359 77.31787109 44.79443359 C78.24599609 45.19662109 78.24599609 45.19662109 79.19287109 45.60693359 C81.31787109 46.79443359 81.31787109 46.79443359 83.31787109 49.79443359 C83.23422725 53.64205029 82.71614539 55.34602312 80.1418457 58.24438477 C77.29076837 60.81890735 74.48693306 62.74471804 71.19677734 64.72021484 C70.61556625 65.07149948 70.03435516 65.42278412 69.43553162 65.78471375 C67.58781285 66.89893859 65.73418632 68.00288902 63.88037109 69.10693359 C62.67230961 69.83482025 61.46462446 70.56333187 60.25732422 71.29248047 C55.31105835 74.26990506 50.35557424 77.2230212 45.32128906 80.04980469 C44.67570541 80.41309372 44.03012177 80.77638275 43.36497498 81.15068054 C42.12715796 81.84428671 40.886583 82.53299997 39.64295959 83.21614075 C36.40924357 84.91622117 36.40924357 84.91622117 34.31787109 87.79443359 C32.52490234 88.58349609 32.52490234 88.58349609 30.13037109 89.41943359 C24.12469204 91.70524198 18.74678977 94.84332808 13.22412109 98.08740234 C7.49242619 101.45400271 2.93638648 101.73786232 -3.68212891 100.79443359 C-9.3441586 98.72264545 -14.46269852 95.7900642 -19.68212891 92.79443359 C-20.66117188 92.23675293 -21.64021484 91.67907227 -22.64892578 91.10449219 C-28.21654604 87.92626655 -33.76691807 84.71939373 -39.30712891 81.49365234 C-64.78570109 64.79522247 -64.78570109 64.79522247 -93.68212891 60.79443359 C-99.39004092 62.64111101 -104.52705651 65.78227463 -109.68212891 68.79443359 C-110.85504373 69.45088238 -112.02947088 70.10463804 -113.20556641 70.75537109 C-116.72316188 72.7274784 -120.20633259 74.75001448 -123.68212891 76.79443359 C-124.27413086 77.14135254 -124.86613281 77.48827148 -125.47607422 77.84570312 C-128.84360119 79.81918481 -132.20718422 81.79926368 -135.56884766 83.78271484 C-140.05429091 86.42755777 -144.54709267 89.05972598 -149.04115295 91.68989563 C-154.01833551 94.60304422 -158.99242549 97.52143681 -163.96543884 100.44169617 C-167.76336362 102.67113705 -171.56518073 104.8937505 -175.37002563 107.11135864 C-177.8115469 108.53605501 -180.24989481 109.96611957 -182.68756104 111.3973999 C-184.37703598 112.38715808 -186.07029479 113.37044855 -187.76367188 114.35351562 C-200.60135861 121.58232568 -200.60135861 121.58232568 -209.68212891 132.79443359 C-210.16342758 133.39674301 -210.64472626 133.99905243 -211.14060974 134.61961365 C-217.74840017 143.94207602 -216.09462378 157.92944515 -216.06225395 168.74102592 C-216.05305428 172.10204286 -216.06346816 175.46251245 -216.07887268 178.82350159 C-216.11872891 188.37117789 -216.12017852 197.91880698 -216.11791992 207.46655273 C-216.11786858 213.32900984 -216.13715302 219.19116958 -216.16725349 225.053545 C-216.17799048 228.3443661 -216.16600259 231.63459836 -216.15342712 234.92539978 C-216.1776981 249.08415841 -216.79074156 262.62111137 -226.68212891 273.79443359 C-232.40485373 278.88504279 -238.75436977 282.78882917 -245.43212891 286.48193359 C-247.29549344 287.52996261 -249.15877233 288.57814392 -251.02197266 289.62646484 C-251.96411621 290.15320801 -252.90625977 290.67995117 -253.87695312 291.22265625 C-258.26348089 293.68048617 -262.62958842 296.17369766 -266.99462891 298.66943359 C-267.84275146 299.15379883 -268.69087402 299.63816406 -269.56469727 300.13720703 C-276.55933974 304.13787373 -283.53136984 308.17691878 -290.49462891 312.23193359 C-291.98893433 313.10084229 -291.98893433 313.10084229 -293.51342773 313.98730469 C-298.45449685 316.87081849 -303.34321633 319.79729539 -308.13012695 322.93139648 C-309.68212891 323.79443359 -309.68212891 323.79443359 -311.68212891 323.79443359 C-312.01212891 324.45443359 -312.34212891 325.11443359 -312.68212891 325.79443359 C-314.13025311 326.60516373 -315.61727495 327.34706552 -317.11962891 328.05224609 C-322.48571161 330.65726993 -327.57286875 333.59712413 -332.68212891 336.66943359 C-340.83210845 341.52806184 -349.01812651 346.31654425 -357.24462891 351.04443359 C-366.38327344 356.30431434 -375.5086679 361.586047 -384.61154175 366.90759277 C-385.8984031 367.65952851 -387.18576939 368.41060083 -388.47366333 369.1607666 C-390.27115572 370.20808689 -392.06672769 371.25862513 -393.86181641 372.31005859 C-395.40458252 373.21159668 -395.40458252 373.21159668 -396.97851562 374.13134766 C-399.63078057 375.70267874 -399.63078057 375.70267874 -401.76098633 377.36987305 C-403.83773222 378.90981615 -405.90532766 379.96652549 -408.24072266 381.07177734 C-414.91850837 384.34150523 -421.20830395 388.20961622 -427.55908203 392.06591797 C-434.03838102 395.95349736 -440.49889073 399.40002087 -447.68212891 401.79443359 C-452.25847895 400.21351267 -455.60745552 398.57864699 -458.68212891 394.79443359 C-459.90410152 391.12851574 -460.00437854 387.61971896 -460.18212891 383.79443359 C-460.26263176 382.16681822 -460.34336868 380.5392144 -460.42431641 378.91162109 C-460.46524414 378.06954102 -460.50617188 377.22746094 -460.54833984 376.35986328 C-460.67980458 373.83900298 -460.83689832 371.32107833 -461.00244141 368.80224609 C-461.05335938 367.98498047 -461.10427734 367.16771484 -461.15673828 366.32568359 C-461.25328072 364.78100463 -461.35564091 363.23667205 -461.46533203 361.69287109 C-461.78203537 356.36091036 -461.4143539 351.24035438 -460.91796875 345.92675781 C-460.52562748 340.71584846 -460.6172591 335.5164528 -460.68212891 330.29443359 C-460.73391293 326.12581959 -460.74489257 321.96298701 -460.68212891 317.79443359 C-460.65892578 316.20695313 -460.65892578 316.20695313 -460.63525391 314.58740234 C-460.34192489 308.04453563 -459.58841074 303.37987732 -454.68212891 298.79443359 C-452.31683059 297.10001989 -450.15430156 295.72446499 -447.61962891 294.35693359 C-446.89702881 293.94918701 -446.17442871 293.54144043 -445.42993164 293.12133789 C-443.78401457 292.19313586 -442.13442586 291.2714254 -440.48193359 290.35498047 C-435.64185815 287.6572335 -430.84262799 284.8879232 -426.03536987 282.13226318 C-423.61833681 280.74833577 -421.19879177 279.36883302 -418.77922058 277.98934937 C-408.14281365 271.92476784 -397.54056651 265.80131313 -386.93945312 259.67529297 C-383.58552328 257.73865112 -380.22977861 255.80518786 -376.87353516 253.87255859 C-361.78050334 245.18314245 -361.78050334 245.18314245 -346.76049805 236.3684082 C-343.08386924 234.19227708 -339.38911529 232.05425069 -335.67041016 229.95068359 C-334.81890381 229.46631836 -333.96739746 228.98195313 -333.09008789 228.48291016 C-331.45906906 227.55664867 -329.82470122 226.63624714 -328.1862793 225.72314453 C-321.6930206 222.0255263 -314.83837116 217.84956334 -311.68212891 210.79443359 C-311.68212891 209.47443359 -311.68212891 208.15443359 -311.68212891 206.79443359 C-311.02212891 206.79443359 -310.36212891 206.79443359 -309.68212891 206.79443359 C-309.65742841 201.01033846 -309.63926867 195.22627397 -309.62719727 189.44213867 C-309.62216541 187.47403427 -309.61533933 185.50593362 -309.60668945 183.5378418 C-309.59457373 180.71060259 -309.58888915 177.88341276 -309.58447266 175.05615234 C-309.57931137 174.17481125 -309.57415009 173.29347015 -309.5688324 172.38542175 C-309.56875687 171.56479752 -309.56868134 170.74417328 -309.56860352 169.89868164 C-309.5663829 169.17698288 -309.56416229 168.45528412 -309.56187439 167.7117157 C-309.61387292 165.57216558 -309.61387292 165.57216558 -310.68212891 162.79443359 C-310.02212891 162.79443359 -309.36212891 162.79443359 -308.68212891 162.79443359 C-308.84712891 161.76318359 -309.01212891 160.73193359 -309.18212891 159.66943359 C-309.94351634 153.38254879 -309.80738099 147.11433412 -309.68212891 140.79443359 C-309.66956055 139.88967285 -309.65699219 138.98491211 -309.64404297 138.05273438 C-309.44088246 125.42983305 -308.96253728 113.78534191 -304.68212891 101.79443359 C-304.30958984 100.74255859 -303.93705078 99.69068359 -303.55322266 98.60693359 C-295.35007278 77.3816217 -279.005992 62.04258701 -259.68212891 50.79443359 C-257.92935586 49.7647731 -256.17676598 48.73480077 -254.42431641 47.70458984 C-240.66160958 39.63375941 -226.83343518 31.67514213 -213.00830078 23.71191406 C-209.61159205 21.75377032 -206.21690432 19.79216433 -202.82275391 17.82958984 C-200.56759721 16.52611509 -198.31238967 15.22272829 -196.05712891 13.91943359 C-194.97641113 13.29472168 -193.89569336 12.67000977 -192.78222656 12.02636719 C-185.96321763 8.09123297 -179.12428243 4.19500716 -172.22265625 0.40625 C-169.73828554 -0.97073815 -167.70285272 -2.1848426 -165.68212891 -4.20556641 C-163.90394584 -5.13920269 -162.10318399 -6.03012377 -160.29150391 -6.89697266 C-153.96870683 -10.00464439 -147.96768696 -13.5172718 -141.93212891 -17.14306641 C-88.06739941 -48.95895533 -49.57752234 -29.466443 0 0 Z " fill="#E6793B" transform="translate(597.68212890625,312.20556640625)"/>
<path d="M0 0 C3.83250023 2.622237 4.55499931 5.40336869 5.59830093 9.82926941 C6.20845176 13.12644677 6.22504413 16.31762222 6.19873047 19.66601562 C6.19569412 20.38585129 6.19265778 21.10568695 6.18952942 21.84733582 C6.17636691 24.20053855 6.14771819 26.55321289 6.1171875 28.90625 C6.10114113 30.55716623 6.08545094 32.20808596 6.07009888 33.85900879 C6.03523375 37.30864281 5.99191455 40.75805235 5.94335938 44.20751953 C5.88262794 48.61202369 5.84938545 53.01626156 5.82330132 57.42108917 C5.79897481 60.82721842 5.75675029 64.2329574 5.70956802 67.63883972 C5.68980942 69.26215768 5.67626457 70.88556439 5.66924667 72.50898743 C5.58650029 88.3579885 5.58650029 88.3579885 1 95 C-1.85546875 97.3984375 -1.85546875 97.3984375 -5.1875 99.375 C-5.80061035 99.7460083 -6.4137207 100.1170166 -7.04541016 100.49926758 C-9.01898447 101.68643775 -11.00823516 102.84366313 -13 104 C-14.28607345 104.76538802 -15.57122976 105.53231918 -16.85546875 106.30078125 C-20.38700248 108.40412759 -23.93645106 110.47539785 -27.49072266 112.54003906 C-30.28231188 114.16425618 -33.06907244 115.7965785 -35.85546875 117.4296875 C-55.48703729 128.92440576 -55.48703729 128.92440576 -65.35571289 134.33618164 C-67.87267351 135.72885643 -69.95385104 136.95385104 -72 139 C-73.44705074 139.77255974 -74.9170923 140.50245991 -76.3984375 141.20703125 C-82.30264561 144.1019363 -87.95842621 147.35575601 -93.625 150.6875 C-94.66881836 151.30036865 -95.71263672 151.9132373 -96.78808594 152.54467773 C-99.86284564 154.35626861 -102.93263846 156.17591512 -106 158 C-106.85754883 158.50885742 -107.71509766 159.01771484 -108.59863281 159.54199219 C-110.82363365 160.86968263 -113.03888324 162.21184513 -115.25 163.5625 C-115.88631348 163.94301514 -116.52262695 164.32353027 -117.17822266 164.71557617 C-120.95085772 167.0554402 -123.80829898 169.11233986 -126 173 C-127.5970079 181.64529837 -127.08091581 190.67178657 -126.98346901 199.42852974 C-126.95640501 202.00092972 -126.93880131 204.57323831 -126.92399597 207.14573669 C-126.88168556 214.45287152 -126.83420376 221.75982944 -126.75317383 229.06665039 C-126.70403512 233.55976054 -126.67548547 238.05262799 -126.65942955 242.54597282 C-126.64967857 244.23650956 -126.632701 245.92702386 -126.60764503 247.61740303 C-126.19240976 276.27633583 -135.62545265 300.9878247 -155.53125 321.71875 C-158 324 -158 324 -160 324 C-160 324.66 -160 325.32 -160 326 C-162.3393537 327.80464428 -164.67730834 329.47825456 -167.125 331.125 C-167.84187988 331.61347412 -168.55875977 332.10194824 -169.29736328 332.60522461 C-175.13553216 336.53310556 -181.13602442 340.0619906 -187.3046875 343.44140625 C-190.041157 344.86905063 -190.041157 344.86905063 -192 347 C-193.5638561 347.90935336 -195.15132112 348.77836237 -196.75 349.625 C-201.3838084 352.11682279 -205.98667807 354.65371327 -210.5625 357.25 C-211.47370605 357.76167725 -211.47370605 357.76167725 -212.40332031 358.28369141 C-214.88662644 359.6968008 -216.96930642 360.96930642 -219 363 C-220.47841295 363.78800016 -221.97952879 364.53382797 -223.4921875 365.25390625 C-228.87111894 367.89133644 -233.99133252 370.85511981 -239.125 373.9375 C-241.06733449 375.0943779 -243.01005653 376.25060531 -244.953125 377.40625 C-245.94892578 377.99921875 -246.94472656 378.5921875 -247.97070312 379.203125 C-253.91866832 382.73125394 -259.89840897 386.20492976 -265.87524414 389.68383789 C-271.03048836 392.68477613 -276.18187258 395.69184431 -281.32421875 398.71484375 C-287.20192978 402.1680447 -293.09609626 405.59181219 -299 409 C-300.09562256 409.63856934 -300.09562256 409.63856934 -301.21337891 410.29003906 C-324.53496773 423.80433717 -349.6241518 428.33448107 -376 422 C-391.26205228 417.77435035 -404.9226063 409.41086697 -418.38012695 401.2746582 C-421.8484936 399.19026883 -425.17999392 397.38719199 -429 396 C-431 395 -431 395 -433.26879883 393.14770508 C-435.9833812 391.01306834 -438.69413181 389.33280057 -441.69921875 387.63671875 C-443.3697229 386.68877441 -443.3697229 386.68877441 -445.07397461 385.72167969 C-446.2784817 385.04361735 -447.4829902 384.36555752 -448.6875 383.6875 C-450.58017286 382.61545709 -452.47192736 381.54180532 -454.36366272 380.46810913 C-455.6580867 379.73357882 -456.9527976 378.99955391 -458.24778748 378.26602173 C-465.74575721 374.01733883 -473.20372614 369.70001901 -480.6628418 365.38354492 C-485.74317228 362.44653376 -490.83009775 359.52344724 -495.94140625 356.640625 C-520.07171419 343.02535086 -520.07171419 343.02535086 -521.859375 339.125 C-522.04924832 336.2558031 -521.24886843 334.58063609 -520 332 C-513.90106019 325.71065938 -505.54138894 321.70887914 -497.9375 317.5625 C-496.78572266 316.92634766 -495.63394531 316.29019531 -494.44726562 315.63476562 C-491.63523522 314.08289822 -488.81952956 312.53818691 -486 311 C-486.33 310.34 -486.66 309.68 -487 309 C-486.14116211 308.90630127 -485.28232422 308.81260254 -484.39746094 308.71606445 C-480.5724332 307.90988406 -477.99765859 306.53485886 -474.640625 304.54296875 C-474.05134216 304.19873367 -473.46205933 303.8544986 -472.85491943 303.49983215 C-470.98132407 302.40443542 -469.11512681 301.29724562 -467.25 300.1875 C-444.66386422 286.7891958 -444.66386422 286.7891958 -437.28515625 288.16796875 C-432.85136072 289.78232507 -428.81509587 292.21990892 -424.7578125 294.6015625 C-423.84773438 295.06304688 -422.93765625 295.52453125 -422 296 C-421.34 295.67 -420.68 295.34 -420 295 C-420 295.99 -420 296.98 -420 298 C-419.33613281 298.24234375 -418.67226563 298.4846875 -417.98828125 298.734375 C-414.23297567 300.32485736 -410.74178338 302.25670341 -407.1875 304.25 C-406.41776855 304.67821045 -405.64803711 305.1064209 -404.85498047 305.54760742 C-400.16782746 308.17124848 -395.52380168 310.85995661 -390.90234375 313.59765625 C-389.86118408 314.21286133 -388.82002441 314.82806641 -387.74731445 315.46191406 C-385.71948977 316.66379936 -383.69563274 317.87241357 -381.67651367 319.08886719 C-370.64162788 325.63123797 -359.24936016 331.92971645 -346.125 329.125 C-344.74631215 328.76379396 -343.37098475 328.38942368 -342 328 C-341.37552979 327.86311768 -340.75105957 327.72623535 -340.10766602 327.58520508 C-337.93210491 326.98114855 -336.23631573 326.16807939 -334.26953125 325.06640625 C-333.20255005 324.47206787 -333.20255005 324.47206787 -332.11401367 323.86572266 C-330.9747644 323.22062744 -330.9747644 323.22062744 -329.8125 322.5625 C-328.61427612 321.89033447 -328.61427612 321.89033447 -327.3918457 321.20458984 C-321.41924582 317.83959564 -315.50180599 314.38506458 -309.60424805 310.890625 C-303.97573054 307.55902742 -298.30785665 304.30043083 -292.625 301.0625 C-282.72456458 295.41833494 -272.84437994 289.74144999 -263 284 C-262.05817871 283.45102051 -261.11635742 282.90204102 -260.14599609 282.33642578 C-257.17812181 280.60358428 -254.21358486 278.86516572 -251.25 277.125 C-250.3329126 276.5894751 -249.4158252 276.0539502 -248.47094727 275.50219727 C-244.52371547 273.17688575 -240.67877518 270.82984563 -236.984375 268.1171875 C-234 266 -234 266 -232 266 C-232 265.34 -232 264.68 -232 264 C-231.34 264 -230.68 264 -230 264 C-229.71125 263.41734375 -229.4225 262.8346875 -229.125 262.234375 C-228.43358256 260.86114315 -227.72823713 259.4946909 -227 258.140625 C-226.67 257.51671875 -226.34 256.8928125 -226 256.25 C-225.67 255.63640625 -225.34 255.0228125 -225 254.390625 C-222.14275303 247.56001896 -221.70839971 241.12845892 -221.72875977 233.82714844 C-221.72353302 232.84063797 -221.71830627 231.8541275 -221.71292114 230.83772278 C-221.70272354 228.70708546 -221.69690818 226.57642353 -221.69503975 224.44576263 C-221.69135728 221.06441286 -221.67457807 217.68335146 -221.65428162 214.30206299 C-221.59905632 204.69215274 -221.56824581 195.0822004 -221.54370117 185.47216797 C-221.5277548 179.58192985 -221.49746189 173.69189681 -221.45893669 167.80176544 C-221.44734914 165.56767212 -221.44135689 163.33354201 -221.44125557 161.09941864 C-221.44014674 143.15480516 -220.70470224 126.64696295 -207.90625 112.75390625 C-205.37979164 110.42935747 -202.68572038 108.6858861 -199.69921875 107.0078125 C-197.82737329 105.99235131 -197.82737329 105.99235131 -196 104 C-194.14175411 103.04982896 -192.26238697 102.14088339 -190.375 101.25 C-180.34837903 96.37276127 -170.84646517 90.56177045 -161.24707031 84.90576172 C-155.89014428 81.76168919 -150.50775935 78.66207023 -145.125 75.5625 C-144.04718262 74.94125244 -142.96936523 74.32000488 -141.85888672 73.67993164 C-137.47609256 71.15390539 -133.09251084 68.62924734 -128.70898438 66.10449219 C-125.43068941 64.21601508 -122.15274006 62.32694006 -118.875 60.4375 C-117.80330566 59.81987793 -116.73161133 59.20225586 -115.62744141 58.56591797 C-108.23499847 54.30126202 -100.86465811 49.99990994 -93.5 45.6875 C-86.00158719 41.2989973 -78.46343909 37.00312349 -70.84985352 32.81811523 C-64.65214215 29.39690117 -58.54301752 25.83265768 -52.4375 22.25 C-43.8124902 17.19583196 -35.15079637 12.21304733 -26.4375 7.3125 C-24.87696899 6.43029785 -24.87696899 6.43029785 -23.28491211 5.53027344 C-7.5263631 -3.29585835 -7.5263631 -3.29585835 0 0 Z " fill="#E6793B" transform="translate(863,323)"/>
<path d="M0 0 C0.33 0 0.66 0 1 0 C1 1.65 1 3.3 1 5 C0.34 5 -0.32 5 -1 5 C-1 32.72 -1 60.44 -1 89 C-1.33 89 -1.66 89 -2 89 C-2.40375996 81.80963645 -2.40375996 81.80963645 -2.56982422 78.74755859 C-2.80088756 74.49549966 -3.04562201 70.24532148 -3.32421875 65.99609375 C-3.37457275 65.18052002 -3.42492676 64.36494629 -3.47680664 63.5246582 C-3.57205079 61.98239334 -3.67357669 60.44049658 -3.78295898 58.89916992 C-4.1001627 53.56695774 -3.73224888 48.44617649 -3.23583984 43.13232422 C-2.84349858 37.92141486 -2.9351302 32.72201921 -3 27.5 C-3.2804878 4.92073171 -3.2804878 4.92073171 0 0 Z " fill="#D8733B" transform="translate(140,615)"/>
<path d="M0 0 C-5.26138374 3.62705746 -10.61849091 6.88384252 -17 8 C-20.0625 7.1875 -20.0625 7.1875 -22 6 C-22 5.67 -22 5.34 -22 5 C-18.7 5 -15.4 5 -12 5 C-12 4.34 -12 3.68 -12 3 C-10.75823305 2.29773859 -9.50614401 1.61370891 -8.25 0.9375 C-7.55390625 0.55464844 -6.8578125 0.17179688 -6.140625 -0.22265625 C-3.63859372 -1.1312406 -2.4667645 -0.88336837 0 0 Z " fill="#D36E37" transform="translate(167,706)"/>
<path d="M0 0 C0.33 0 0.66 0 1 0 C0.88541307 1.43836751 0.75790884 2.87570966 0.625 4.3125 C0.55539062 5.11300781 0.48578125 5.91351562 0.4140625 6.73828125 C0 9 0 9 -2 12 C-2 9.36 -2 6.72 -2 4 C-1.34 4 -0.68 4 0 4 C0 2.68 0 1.36 0 0 Z " fill="#D77239" transform="translate(732,596)"/>
<path d="M0 0 C1.98 0 3.96 0 6 0 C6 0.33 6 0.66 6 1 C4.02 1 2.04 1 0 1 C0 0.67 0 0.34 0 0 Z " fill="#DE753F" transform="translate(504,373)"/>
<path d="M0 0 C0.66 0.66 1.32 1.32 2 2 C0.68 1.67 -0.64 1.34 -2 1 C-1.34 0.67 -0.68 0.34 0 0 Z " fill="#D5713C" transform="translate(766,478)"/>
<path d="M0 0 C0.99 0.33 1.98 0.66 3 1 C2.01 1 1.02 1 0 1 C0 0.67 0 0.34 0 0 Z " fill="#C56738" transform="translate(522,748)"/>
<path d="M0 0 C0.99 0.33 1.98 0.66 3 1 C2.01 1 1.02 1 0 1 C0 0.67 0 0.34 0 0 Z " fill="#CA6C39" transform="translate(474,741)"/>
<path d="M0 0 C0.66 0.66 1.32 1.32 2 2 C1.34 2 0.68 2 0 2 C0 1.34 0 0.68 0 0 Z " fill="#D16E3B" transform="translate(419,710)"/>
<path d="" fill="#DB743F" transform="translate(0,0)"/>
<path d="" fill="#DA7440" transform="translate(0,0)"/>
<path d="" fill="#D8753F" transform="translate(0,0)"/>
<path d="" fill="#D9743E" transform="translate(0,0)"/>
<path d="" fill="#D9743E" transform="translate(0,0)"/>
<path d="" fill="#D8743F" transform="translate(0,0)"/>
<path d="M0 0 C2 1 2 1 2 1 Z " fill="#C9693B" transform="translate(505,749)"/>
<path d="M0 0 C2 1 2 1 2 1 Z " fill="#C66A3B" transform="translate(477,743)"/>
<path d="M0 0 C2 1 2 1 2 1 Z " fill="#AC5B33" transform="translate(147,714)"/>
<path d="M0 0 C2 1 2 1 2 1 Z " fill="#D06F3B" transform="translate(416,709)"/>
<path d="M0 0 C2 1 2 1 2 1 Z " fill="#CE6F38" transform="translate(614,703)"/>
<path d="M0 0 C2 1 2 1 2 1 Z " fill="#D36E3C" transform="translate(402,701)"/>
<path d="" fill="#DA743D" transform="translate(0,0)"/>
<path d="M0 0 C2 1 2 1 2 1 Z " fill="#D9733C" transform="translate(572,621)"/>
<path d="M0 0 C2 1 2 1 2 1 Z " fill="#DE7841" transform="translate(396,621)"/>
<path d="M0 0 C2 1 2 1 2 1 Z " fill="#DE763F" transform="translate(399,619)"/>
<path d="M0 0 C2 1 2 1 2 1 Z " fill="#DA7540" transform="translate(417,610)"/>
<path d="" fill="#C56A39" transform="translate(0,0)"/>
<path d="M0 0 C2 1 2 1 2 1 Z " fill="#CC6B39" transform="translate(167,595)"/>
<path d="" fill="#D8753F" transform="translate(0,0)"/>
<path d="M0 0 C2 1 2 1 2 1 Z " fill="#D9733E" transform="translate(600,414)"/>
<path d="" fill="#CA6E3C" transform="translate(0,0)"/>
<path d="M0 0 C2 1 2 1 2 1 Z " fill="#DC763D" transform="translate(712,400)"/>
<path d="M0 0 C2 1 2 1 2 1 Z " fill="#DD7740" transform="translate(520,374)"/>
<path d="M0 0 C2 1 2 1 2 1 Z " fill="#C66A3B" transform="translate(324,369)"/>
<path d="" fill="#C5693A" transform="translate(0,0)"/>
<path d="M0 0 C2 1 2 1 2 1 Z " fill="#C06636" transform="translate(848,322)"/>
<path d="M0 0 C2 1 2 1 2 1 Z " fill="#BA6234" transform="translate(852,320)"/>
<path d="M0 0 C2 1 2 1 2 1 Z " fill="#CE6E3C" transform="translate(433,306)"/>
<path d="M0 0 C2 1 2 1 2 1 Z " fill="#CA6B3A" transform="translate(500,276)"/>
<path d="" fill="#000000" transform="translate(0,0)"/>
<path d="" fill="#000000" transform="translate(0,0)"/>
<path d="" fill="#000000" transform="translate(0,0)"/>
<path d="" fill="#000000" transform="translate(0,0)"/>
<path d="" fill="#000000" transform="translate(0,0)"/>
<path d="" fill="#000000" transform="translate(0,0)"/>
<path d="" fill="#000000" transform="translate(0,0)"/>
<path d="" fill="#000000" transform="translate(0,0)"/>
<path d="" fill="#000000" transform="translate(0,0)"/>
<path d="" fill="#000000" transform="translate(0,0)"/>
<path d="" fill="#000000" transform="translate(0,0)"/>
<path d="" fill="#000000" transform="translate(0,0)"/>
<path d="" fill="#000000" transform="translate(0,0)"/>
<path d="" fill="#000000" transform="translate(0,0)"/>
<path d="" fill="#000000" transform="translate(0,0)"/>
<path d="" fill="#000000" transform="translate(0,0)"/>
<path d="" fill="#000000" transform="translate(0,0)"/>
<path d="" fill="#000000" transform="translate(0,0)"/>
<path d="" fill="#000001" transform="translate(0,0)"/>
<path d="" fill="#000000" transform="translate(0,0)"/>
<path d="" fill="#000000" transform="translate(0,0)"/>
<path d="" fill="#000000" transform="translate(0,0)"/>
<path d="" fill="#000000" transform="translate(0,0)"/>
<path d="" fill="#000000" transform="translate(0,0)"/>
<path d="" fill="#000000" transform="translate(0,0)"/>
<path d="" fill="#000000" transform="translate(0,0)"/>
<path d="" fill="#000000" transform="translate(0,0)"/>
<path d="" fill="#000000" transform="translate(0,0)"/>
<path d="" fill="#000000" transform="translate(0,0)"/>
<path d="" fill="#000000" transform="translate(0,0)"/>
<path d="" fill="#000000" transform="translate(0,0)"/>
<path d="" fill="#000000" transform="translate(0,0)"/>
<path d="" fill="#000000" transform="translate(0,0)"/>
<path d="" fill="#000000" transform="translate(0,0)"/>
<path d="" fill="#000000" transform="translate(0,0)"/>
<path d="" fill="#000000" transform="translate(0,0)"/>
<path d="" fill="#000000" transform="translate(0,0)"/>
<path d="" fill="#000000" transform="translate(0,0)"/>
<path d="" fill="#000000" transform="translate(0,0)"/>
<path d="" fill="#000000" transform="translate(0,0)"/>
<path d="" fill="#000000" transform="translate(0,0)"/>
<path d="" fill="#000000" transform="translate(0,0)"/>
<path d="" fill="#000000" transform="translate(0,0)"/>
<path d="" fill="#010000" transform="translate(0,0)"/>
<path d="" fill="#000000" transform="translate(0,0)"/>
<path d="" fill="#000000" transform="translate(0,0)"/>
<path d="" fill="#000000" transform="translate(0,0)"/>
<path d="" fill="#000000" transform="translate(0,0)"/>
<path d="" fill="#000000" transform="translate(0,0)"/>
<path d="" fill="#000000" transform="translate(0,0)"/>
<path d="" fill="#000000" transform="translate(0,0)"/>
<path d="" fill="#000000" transform="translate(0,0)"/>
<path d="" fill="#000000" transform="translate(0,0)"/>
<path d="" fill="#000000" transform="translate(0,0)"/>
<path d="" fill="#000000" transform="translate(0,0)"/>
<path d="" fill="#000000" transform="translate(0,0)"/>
<path d="" fill="#000000" transform="translate(0,0)"/>
<path d="" fill="#000100" transform="translate(0,0)"/>
<path d="" fill="#000000" transform="translate(0,0)"/>
<path d="" fill="#000000" transform="translate(0,0)"/>
<path d="" fill="#010000" transform="translate(0,0)"/>
<path d="" fill="#000000" transform="translate(0,0)"/>
<path d="" fill="#000000" transform="translate(0,0)"/>
<path d="" fill="#000000" transform="translate(0,0)"/>
<path d="" fill="#000000" transform="translate(0,0)"/>
<path d="" fill="#000000" transform="translate(0,0)"/>
<path d="" fill="#000000" transform="translate(0,0)"/>
<path d="" fill="#000000" transform="translate(0,0)"/>
<path d="" fill="#000000" transform="translate(0,0)"/>
<path d="" fill="#000000" transform="translate(0,0)"/>
<path d="" fill="#000000" transform="translate(0,0)"/>
<path d="" fill="#000000" transform="translate(0,0)"/>
<path d="" fill="#000000" transform="translate(0,0)"/>
<path d="" fill="#000000" transform="translate(0,0)"/>
<path d="" fill="#000000" transform="translate(0,0)"/>
<path d="" fill="#000000" transform="translate(0,0)"/>
<path d="" fill="#000000" transform="translate(0,0)"/>
<path d="" fill="#000000" transform="translate(0,0)"/>
<path d="" fill="#000000" transform="translate(0,0)"/>
<path d="" fill="#000000" transform="translate(0,0)"/>
<path d="" fill="#000000" transform="translate(0,0)"/>
<path d="" fill="#000000" transform="translate(0,0)"/>
<path d="" fill="#000000" transform="translate(0,0)"/>
<path d="" fill="#000200" transform="translate(0,0)"/>
<path d="" fill="#000000" transform="translate(0,0)"/>
<path d="" fill="#000000" transform="translate(0,0)"/>
<path d="" fill="#000000" transform="translate(0,0)"/>
<path d="" fill="#000000" transform="translate(0,0)"/>
<path d="" fill="#000000" transform="translate(0,0)"/>
<path d="" fill="#000000" transform="translate(0,0)"/>
<path d="" fill="#000000" transform="translate(0,0)"/>
<path d="" fill="#000000" transform="translate(0,0)"/>
<path d="" fill="#000000" transform="translate(0,0)"/>
<path d="" fill="#000000" transform="translate(0,0)"/>
<path d="" fill="#000000" transform="translate(0,0)"/>
<path d="" fill="#000000" transform="translate(0,0)"/>
<path d="" fill="#000000" transform="translate(0,0)"/>
<path d="" fill="#000000" transform="translate(0,0)"/>
<path d="" fill="#000000" transform="translate(0,0)"/>
<path d="" fill="#000000" transform="translate(0,0)"/>
<path d="" fill="#000000" transform="translate(0,0)"/>
<path d="" fill="#000000" transform="translate(0,0)"/>
<path d="" fill="#000000" transform="translate(0,0)"/>
<path d="" fill="#000000" transform="translate(0,0)"/>
<path d="" fill="#000000" transform="translate(0,0)"/>
<path d="" fill="#000000" transform="translate(0,0)"/>
<path d="" fill="#000000" transform="translate(0,0)"/>
<path d="" fill="#000000" transform="translate(0,0)"/>
<path d="" fill="#000000" transform="translate(0,0)"/>
<path d="" fill="#000000" transform="translate(0,0)"/>
<path d="" fill="#000000" transform="translate(0,0)"/>
<path d="" fill="#000000" transform="translate(0,0)"/>
<path d="" fill="#000000" transform="translate(0,0)"/>
<path d="" fill="#000000" transform="translate(0,0)"/>
<path d="" fill="#000000" transform="translate(0,0)"/>
<path d="" fill="#000000" transform="translate(0,0)"/>
<path d="" fill="#000000" transform="translate(0,0)"/>
<path d="" fill="#000000" transform="translate(0,0)"/>
<path d="" fill="#000000" transform="translate(0,0)"/>
<path d="" fill="#000000" transform="translate(0,0)"/>
<path d="" fill="#000000" transform="translate(0,0)"/>
<path d="" fill="#000000" transform="translate(0,0)"/>
<path d="" fill="#000000" transform="translate(0,0)"/>
<path d="" fill="#000000" transform="translate(0,0)"/>
<path d="" fill="#000000" transform="translate(0,0)"/>
<path d="" fill="#000000" transform="translate(0,0)"/>
<path d="" fill="#000000" transform="translate(0,0)"/>
<path d="" fill="#000000" transform="translate(0,0)"/>
<path d="" fill="#000000" transform="translate(0,0)"/>
<path d="" fill="#000000" transform="translate(0,0)"/>
<path d="" fill="#000000" transform="translate(0,0)"/>
<path d="" fill="#000000" transform="translate(0,0)"/>
<path d="" fill="#000000" transform="translate(0,0)"/>
<path d="" fill="#000000" transform="translate(0,0)"/>
<path d="" fill="#000000" transform="translate(0,0)"/>
<path d="" fill="#000000" transform="translate(0,0)"/>
<path d="" fill="#000000" transform="translate(0,0)"/>
<path d="" fill="#000000" transform="translate(0,0)"/>
<path d="" fill="#000000" transform="translate(0,0)"/>
<path d="" fill="#000000" transform="translate(0,0)"/>
<path d="" fill="#000000" transform="translate(0,0)"/>
<path d="" fill="#000000" transform="translate(0,0)"/>
<path d="" fill="#000001" transform="translate(0,0)"/>
<path d="" fill="#000000" transform="translate(0,0)"/>
<path d="" fill="#000000" transform="translate(0,0)"/>
<path d="" fill="#000000" transform="translate(0,0)"/>
<path d="" fill="#000000" transform="translate(0,0)"/>
<path d="" fill="#000000" transform="translate(0,0)"/>
<path d="" fill="#000000" transform="translate(0,0)"/>
<path d="" fill="#000000" transform="translate(0,0)"/>
<path d="" fill="#000000" transform="translate(0,0)"/>
<path d="" fill="#030000" transform="translate(0,0)"/>
<path d="" fill="#000000" transform="translate(0,0)"/>
<path d="" fill="#000000" transform="translate(0,0)"/>
<path d="" fill="#000000" transform="translate(0,0)"/>
<path d="" fill="#030100" transform="translate(0,0)"/>
<path d="" fill="#000000" transform="translate(0,0)"/>
<path d="" fill="#000000" transform="translate(0,0)"/>
<path d="" fill="#000000" transform="translate(0,0)"/>
<path d="" fill="#010000" transform="translate(0,0)"/>
<path d="" fill="#000000" transform="translate(0,0)"/>
<path d="" fill="#000000" transform="translate(0,0)"/>
<path d="" fill="#000000" transform="translate(0,0)"/>
<path d="" fill="#000000" transform="translate(0,0)"/>
<path d="" fill="#000000" transform="translate(0,0)"/>
<path d="" fill="#000000" transform="translate(0,0)"/>
<path d="" fill="#000000" transform="translate(0,0)"/>
<path d="" fill="#000000" transform="translate(0,0)"/>
<path d="" fill="#000000" transform="translate(0,0)"/>
<path d="" fill="#000000" transform="translate(0,0)"/>
<path d="" fill="#000000" transform="translate(0,0)"/>
<path d="" fill="#020000" transform="translate(0,0)"/>
<path d="" fill="#000000" transform="translate(0,0)"/>
<path d="" fill="#0D0803" transform="translate(0,0)"/>
<path d="" fill="#000000" transform="translate(0,0)"/>
<path d="" fill="#070300" transform="translate(0,0)"/>
<path d="" fill="#080401" transform="translate(0,0)"/>
<path d="" fill="#010000" transform="translate(0,0)"/>
<path d="" fill="#000000" transform="translate(0,0)"/>
<path d="" fill="#000000" transform="translate(0,0)"/>
<path d="" fill="#000000" transform="translate(0,0)"/>
<path d="" fill="#0F0603" transform="translate(0,0)"/>
<path d="" fill="#000000" transform="translate(0,0)"/>
<path d="" fill="#090300" transform="translate(0,0)"/>
<path d="" fill="#000000" transform="translate(0,0)"/>
<path d="" fill="#060200" transform="translate(0,0)"/>
<path d="" fill="#0E0603" transform="translate(0,0)"/>
<path d="" fill="#000000" transform="translate(0,0)"/>
<path d="" fill="#000000" transform="translate(0,0)"/>
<path d="" fill="#000000" transform="translate(0,0)"/>
<path d="" fill="#000000" transform="translate(0,0)"/>
<path d="" fill="#000000" transform="translate(0,0)"/>
<path d="" fill="#000000" transform="translate(0,0)"/>
<path d="" fill="#120804" transform="translate(0,0)"/>
<path d="" fill="#030000" transform="translate(0,0)"/>
<path d="" fill="#070300" transform="translate(0,0)"/>
<path d="" fill="#000000" transform="translate(0,0)"/>
<path d="" fill="#060100" transform="translate(0,0)"/>
<path d="" fill="#050200" transform="translate(0,0)"/>
<path d="" fill="#000000" transform="translate(0,0)"/>
<path d="" fill="#000000" transform="translate(0,0)"/>
<path d="" fill="#000000" transform="translate(0,0)"/>
<path d="" fill="#030000" transform="translate(0,0)"/>
<path d="" fill="#030000" transform="translate(0,0)"/>
<path d="" fill="#000000" transform="translate(0,0)"/>
<path d="" fill="#000000" transform="translate(0,0)"/>
<path d="" fill="#030100" transform="translate(0,0)"/>
<path d="" fill="#070000" transform="translate(0,0)"/>
<path d="" fill="#060101" transform="translate(0,0)"/>
<path d="" fill="#000000" transform="translate(0,0)"/>
<path d="" fill="#080201" transform="translate(0,0)"/>
<path d="" fill="#000000" transform="translate(0,0)"/>
<path d="" fill="#000000" transform="translate(0,0)"/>
<path d="" fill="#000000" transform="translate(0,0)"/>
<path d="" fill="#090101" transform="translate(0,0)"/>
<path d="" fill="#000000" transform="translate(0,0)"/>
<path d="" fill="#25120A" transform="translate(0,0)"/>
<path d="" fill="#0C0601" transform="translate(0,0)"/>
<path d="" fill="#000000" transform="translate(0,0)"/>
<path d="" fill="#26140B" transform="translate(0,0)"/>
<path d="" fill="#000000" transform="translate(0,0)"/>
<path d="" fill="#0A0200" transform="translate(0,0)"/>
<path d="" fill="#20100A" transform="translate(0,0)"/>
<path d="" fill="#000000" transform="translate(0,0)"/>
<path d="" fill="#000000" transform="translate(0,0)"/>
<path d="" fill="#000000" transform="translate(0,0)"/>
<path d="" fill="#000000" transform="translate(0,0)"/>
<path d="" fill="#000000" transform="translate(0,0)"/>
<path d="" fill="#010000" transform="translate(0,0)"/>
<path d="" fill="#000000" transform="translate(0,0)"/>
<path d="" fill="#2F180D" transform="translate(0,0)"/>
<path d="" fill="#120703" transform="translate(0,0)"/>
<path d="" fill="#000000" transform="translate(0,0)"/>
<path d="" fill="#000000" transform="translate(0,0)"/>
<path d="" fill="#472614" transform="translate(0,0)"/>
<path d="" fill="#000000" transform="translate(0,0)"/>
<path d="" fill="#241008" transform="translate(0,0)"/>
<path d="" fill="#090401" transform="translate(0,0)"/>
<path d="" fill="#030000" transform="translate(0,0)"/>
<path d="" fill="#000000" transform="translate(0,0)"/>
<path d="" fill="#000000" transform="translate(0,0)"/>
<path d="" fill="#63351C" transform="translate(0,0)"/>
<path d="" fill="#000000" transform="translate(0,0)"/>
<path d="" fill="#000000" transform="translate(0,0)"/>
<path d="" fill="#000000" transform="translate(0,0)"/>
<path d="" fill="#000000" transform="translate(0,0)"/>
<path d="" fill="#070001" transform="translate(0,0)"/>
<path d="" fill="#29160B" transform="translate(0,0)"/>
<path d="" fill="#472513" transform="translate(0,0)"/>
<path d="" fill="#221008" transform="translate(0,0)"/>
<path d="" fill="#000000" transform="translate(0,0)"/>
<path d="" fill="#000000" transform="translate(0,0)"/>
<path d="" fill="#000000" transform="translate(0,0)"/>
<path d="" fill="#442314" transform="translate(0,0)"/>
<path d="" fill="#000000" transform="translate(0,0)"/>
<path d="" fill="#723B1F" transform="translate(0,0)"/>
<path d="" fill="#000000" transform="translate(0,0)"/>
<path d="" fill="#0F0503" transform="translate(0,0)"/>
<path d="" fill="#120904" transform="translate(0,0)"/>
<path d="" fill="#000000" transform="translate(0,0)"/>
<path d="" fill="#060200" transform="translate(0,0)"/>
<path d="" fill="#020000" transform="translate(0,0)"/>
<path d="" fill="#000000" transform="translate(0,0)"/>
<path d="" fill="#070100" transform="translate(0,0)"/>
<path d="" fill="#552D18" transform="translate(0,0)"/>
<path d="" fill="#21120A" transform="translate(0,0)"/>
<path d="" fill="#000000" transform="translate(0,0)"/>
<path d="" fill="#000000" transform="translate(0,0)"/>
<path d="" fill="#BF6639" transform="translate(0,0)"/>
<path d="" fill="#3E1F10" transform="translate(0,0)"/>
<path d="" fill="#C76739" transform="translate(0,0)"/>
<path d="" fill="#CA6A39" transform="translate(0,0)"/>
<path d="" fill="#C96938" transform="translate(0,0)"/>
<path d="" fill="#C76836" transform="translate(0,0)"/>
<path d="" fill="#6A381D" transform="translate(0,0)"/>
<path d="" fill="#090400" transform="translate(0,0)"/>
<path d="" fill="#5F321D" transform="translate(0,0)"/>
<path d="" fill="#864828" transform="translate(0,0)"/>
<path d="" fill="#C56939" transform="translate(0,0)"/>
<path d="" fill="#000000" transform="translate(0,0)"/>
<path d="" fill="#834426" transform="translate(0,0)"/>
<path d="" fill="#62331A" transform="translate(0,0)"/>
<path d="" fill="#000000" transform="translate(0,0)"/>
<path d="" fill="#CC6B39" transform="translate(0,0)"/>
<path d="" fill="#7C4224" transform="translate(0,0)"/>
<path d="" fill="#784123" transform="translate(0,0)"/>
<path d="" fill="#CE6D3C" transform="translate(0,0)"/>
<path d="" fill="#A45831" transform="translate(0,0)"/>
<path d="" fill="#A6572E" transform="translate(0,0)"/>
<path d="" fill="#5F3018" transform="translate(0,0)"/>
<path d="" fill="#311A0C" transform="translate(0,0)"/>
<path d="" fill="#000000" transform="translate(0,0)"/>
<path d="" fill="#CE6C39" transform="translate(0,0)"/>
<path d="" fill="#5E321D" transform="translate(0,0)"/>
<path d="" fill="#CF6C39" transform="translate(0,0)"/>
<path d="" fill="#000000" transform="translate(0,0)"/>
<path d="" fill="#5D3119" transform="translate(0,0)"/>
<path d="" fill="#87492A" transform="translate(0,0)"/>
<path d="" fill="#CA6D3B" transform="translate(0,0)"/>
<path d="" fill="#CE6E3B" transform="translate(0,0)"/>
<path d="" fill="#CF6C3A" transform="translate(0,0)"/>
<path d="" fill="#C56A37" transform="translate(0,0)"/>
<path d="" fill="#874528" transform="translate(0,0)"/>
<path d="" fill="#783F24" transform="translate(0,0)"/>
<path d="" fill="#000000" transform="translate(0,0)"/>
<path d="" fill="#422313" transform="translate(0,0)"/>
<path d="" fill="#D16F3C" transform="translate(0,0)"/>
<path d="" fill="#000001" transform="translate(0,0)"/>
<path d="" fill="#000000" transform="translate(0,0)"/>
<path d="" fill="#AF5A33" transform="translate(0,0)"/>
<path d="" fill="#B46036" transform="translate(0,0)"/>
<path d="" fill="#C16535" transform="translate(0,0)"/>
<path d="" fill="#B66133" transform="translate(0,0)"/>
<path d="" fill="#CA6B39" transform="translate(0,0)"/>
<path d="" fill="#010000" transform="translate(0,0)"/>
<path d="" fill="#AE5D34" transform="translate(0,0)"/>
<path d="" fill="#B15E35" transform="translate(0,0)"/>
<path d="" fill="#D26F3C" transform="translate(0,0)"/>
<path d="" fill="#CC6C39" transform="translate(0,0)"/>
<path d="" fill="#CA6B3A" transform="translate(0,0)"/>
<path d="" fill="#C66939" transform="translate(0,0)"/>
<path d="" fill="#C66938" transform="translate(0,0)"/>
<path d="" fill="#CC6D3B" transform="translate(0,0)"/>
<path d="" fill="#D3703E" transform="translate(0,0)"/>
<path d="" fill="#CE6C3B" transform="translate(0,0)"/>
<path d="" fill="#CB6C3A" transform="translate(0,0)"/>
<path d="" fill="#261209" transform="translate(0,0)"/>
<path d="" fill="#914B2A" transform="translate(0,0)"/>
<path d="" fill="#CA6B3A" transform="translate(0,0)"/>
<path d="" fill="#6F3B22" transform="translate(0,0)"/>
<path d="" fill="#211209" transform="translate(0,0)"/>
<path d="" fill="#BD6839" transform="translate(0,0)"/>
<path d="" fill="#C76939" transform="translate(0,0)"/>
<path d="" fill="#CD6C39" transform="translate(0,0)"/>
<path d="" fill="#000000" transform="translate(0,0)"/>
<path d="" fill="#D26E3D" transform="translate(0,0)"/>
<path d="" fill="#B76236" transform="translate(0,0)"/>
<path d="" fill="#C86938" transform="translate(0,0)"/>
<path d="" fill="#864729" transform="translate(0,0)"/>
<path d="" fill="#CA6C39" transform="translate(0,0)"/>
<path d="" fill="#000000" transform="translate(0,0)"/>
<path d="" fill="#030000" transform="translate(0,0)"/>
<path d="" fill="#000000" transform="translate(0,0)"/>
<path d="" fill="#030000" transform="translate(0,0)"/>
<path d="" fill="#CB6D3A" transform="translate(0,0)"/>
<path d="" fill="#CF6D3C" transform="translate(0,0)"/>
<path d="" fill="#CD6F38" transform="translate(0,0)"/>
<path d="" fill="#CC6C3A" transform="translate(0,0)"/>
<path d="" fill="#D06F3B" transform="translate(0,0)"/>
<path d="" fill="#D16D3C" transform="translate(0,0)"/>
<path d="" fill="#AA5830" transform="translate(0,0)"/>
<path d="" fill="#CE6D38" transform="translate(0,0)"/>
<path d="" fill="#23110B" transform="translate(0,0)"/>
<path d="" fill="#CE6C3C" transform="translate(0,0)"/>
<path d="" fill="#CC6B3A" transform="translate(0,0)"/>
<path d="" fill="#000000" transform="translate(0,0)"/>
<path d="" fill="#C06437" transform="translate(0,0)"/>
<path d="" fill="#C96C3C" transform="translate(0,0)"/>
<path d="" fill="#000000" transform="translate(0,0)"/>
<path d="" fill="#98522D" transform="translate(0,0)"/>
<path d="" fill="#D27139" transform="translate(0,0)"/>
<path d="" fill="#C6693A" transform="translate(0,0)"/>
<path d="" fill="#C56939" transform="translate(0,0)"/>
<path d="" fill="#000000" transform="translate(0,0)"/>
<path d="" fill="#000000" transform="translate(0,0)"/>
<path d="" fill="#E0763E" transform="translate(0,0)"/>
<path d="" fill="#E2783E" transform="translate(0,0)"/>
<path d="" fill="#E17740" transform="translate(0,0)"/>
<path d="" fill="#E0763F" transform="translate(0,0)"/>
<path d="" fill="#C66838" transform="translate(0,0)"/>
<path d="" fill="#D4713A" transform="translate(0,0)"/>
<path d="" fill="#2D190B" transform="translate(0,0)"/>
<path d="" fill="#DF753F" transform="translate(0,0)"/>
<path d="" fill="#D46F3A" transform="translate(0,0)"/>
<path d="" fill="#C86A37" transform="translate(0,0)"/>
<path d="" fill="#000000" transform="translate(0,0)"/>
<path d="" fill="#DB753E" transform="translate(0,0)"/>
<path d="" fill="#D4703E" transform="translate(0,0)"/>
<path d="" fill="#D6713B" transform="translate(0,0)"/>
<path d="" fill="#000000" transform="translate(0,0)"/>
<path d="" fill="#000000" transform="translate(0,0)"/>
<path d="" fill="#DC743F" transform="translate(0,0)"/>
<path d="" fill="#D9713B" transform="translate(0,0)"/>
<path d="" fill="#DC763E" transform="translate(0,0)"/>
<path d="" fill="#D8733E" transform="translate(0,0)"/>
<path d="" fill="#D5703E" transform="translate(0,0)"/>
<path d="" fill="#D9733D" transform="translate(0,0)"/>
<path d="" fill="#AF5C34" transform="translate(0,0)"/>
<path d="" fill="#DB743F" transform="translate(0,0)"/>
<path d="" fill="#D6713E" transform="translate(0,0)"/>
<path d="" fill="#D4703D" transform="translate(0,0)"/>
<path d="" fill="#E27841" transform="translate(0,0)"/>
<path d="" fill="#150905" transform="translate(0,0)"/>
<path d="" fill="#D16D3D" transform="translate(0,0)"/>
<path d="" fill="#D9723B" transform="translate(0,0)"/>
<path d="" fill="#DA753E" transform="translate(0,0)"/>
<path d="" fill="#CF6E3B" transform="translate(0,0)"/>
<path d="" fill="#DB743E" transform="translate(0,0)"/>
<path d="" fill="#E0783E" transform="translate(0,0)"/>
<path d="" fill="#000000" transform="translate(0,0)"/>
<path d="" fill="#000000" transform="translate(0,0)"/>
<path d="" fill="#DA733C" transform="translate(0,0)"/>
<path d="" fill="#C76838" transform="translate(0,0)"/>
<path d="" fill="#060200" transform="translate(0,0)"/>
<path d="" fill="#C76D3B" transform="translate(0,0)"/>
<path d="" fill="#DD753E" transform="translate(0,0)"/>
<path d="" fill="#DD753D" transform="translate(0,0)"/>
<path d="" fill="#C4693A" transform="translate(0,0)"/>
<path d="" fill="#D9733D" transform="translate(0,0)"/>
<path d="" fill="#E07743" transform="translate(0,0)"/>
<path d="" fill="#BF693A" transform="translate(0,0)"/>
<path d="" fill="#5E351E" transform="translate(0,0)"/>
<path d="" fill="#D6713D" transform="translate(0,0)"/>
<path d="" fill="#DE7541" transform="translate(0,0)"/>
<path d="" fill="#2A160C" transform="translate(0,0)"/>
<path d="" fill="#D7713E" transform="translate(0,0)"/>
<path d="" fill="#DE753F" transform="translate(0,0)"/>
<path d="" fill="#CB6A3A" transform="translate(0,0)"/>
<path d="" fill="#D8743D" transform="translate(0,0)"/>
<path d="" fill="#DA743C" transform="translate(0,0)"/>
<path d="" fill="#000000" transform="translate(0,0)"/>
<path d="" fill="#C06639" transform="translate(0,0)"/>
<path d="" fill="#000000" transform="translate(0,0)"/>
<path d="" fill="#DC7440" transform="translate(0,0)"/>
<path d="" fill="#180905" transform="translate(0,0)"/>
<path d="" fill="#DC753F" transform="translate(0,0)"/>
<path d="" fill="#D6743D" transform="translate(0,0)"/>
<path d="" fill="#C56638" transform="translate(0,0)"/>
<path d="" fill="#DA733F" transform="translate(0,0)"/>
<path d="" fill="#DA733B" transform="translate(0,0)"/>
<path d="" fill="#C16839" transform="translate(0,0)"/>
<path d="" fill="#000000" transform="translate(0,0)"/>
<path d="" fill="#D9713E" transform="translate(0,0)"/>
<path d="" fill="#D06E3B" transform="translate(0,0)"/>
<path d="" fill="#D46F3E" transform="translate(0,0)"/>
<path d="" fill="#DE753F" transform="translate(0,0)"/>
<path d="" fill="#DE743F" transform="translate(0,0)"/>
<path d="" fill="#C56837" transform="translate(0,0)"/>
<path d="" fill="#DE7642" transform="translate(0,0)"/>
<path d="" fill="#2B140D" transform="translate(0,0)"/>
<path d="" fill="#180B05" transform="translate(0,0)"/>
<path d="" fill="#D77540" transform="translate(0,0)"/>
<path d="" fill="#CA6C3D" transform="translate(0,0)"/>
<path d="" fill="#B96135" transform="translate(0,0)"/>
<path d="" fill="#000000" transform="translate(0,0)"/>
<path d="" fill="#C96D39" transform="translate(0,0)"/>
<path d="" fill="#CD6B3B" transform="translate(0,0)"/>
<path d="" fill="#DD763F" transform="translate(0,0)"/>
<path d="" fill="#CC6C3A" transform="translate(0,0)"/>
<path d="" fill="#CC6A38" transform="translate(0,0)"/>
<path d="" fill="#CA693A" transform="translate(0,0)"/>
<path d="" fill="#D9753C" transform="translate(0,0)"/>
<path d="" fill="#000000" transform="translate(0,0)"/>
<path d="" fill="#4A2714" transform="translate(0,0)"/>
<path d="" fill="#DB733F" transform="translate(0,0)"/>
<path d="" fill="#D06D39" transform="translate(0,0)"/>
<path d="" fill="#D8733E" transform="translate(0,0)"/>
<path d="" fill="#D6733E" transform="translate(0,0)"/>
<path d="" fill="#BB6438" transform="translate(0,0)"/>
<path d="" fill="#924D2A" transform="translate(0,0)"/>
<path d="" fill="#120802" transform="translate(0,0)"/>
<path d="" fill="#000000" transform="translate(0,0)"/>
<path d="" fill="#1F1007" transform="translate(0,0)"/>
<path d="" fill="#A55931" transform="translate(0,0)"/>
<path d="" fill="#B46036" transform="translate(0,0)"/>
<path d="" fill="#050100" transform="translate(0,0)"/>
<path d="" fill="#0D0600" transform="translate(0,0)"/>
<path d="" fill="#DA733E" transform="translate(0,0)"/>
<path d="" fill="#D26C3A" transform="translate(0,0)"/>
<path d="" fill="#DC763D" transform="translate(0,0)"/>
<path d="" fill="#DD7642" transform="translate(0,0)"/>
<path d="" fill="#D1703C" transform="translate(0,0)"/>
<path d="" fill="#D06D3A" transform="translate(0,0)"/>
<path d="" fill="#D56F3C" transform="translate(0,0)"/>
<path d="" fill="#DA713B" transform="translate(0,0)"/>
<path d="" fill="#1C0D06" transform="translate(0,0)"/>
<path d="" fill="#DB753E" transform="translate(0,0)"/>
<path d="" fill="#000000" transform="translate(0,0)"/>
<path d="" fill="#A85932" transform="translate(0,0)"/>
<path d="" fill="#D5733E" transform="translate(0,0)"/>
<path d="" fill="#CF6B3B" transform="translate(0,0)"/>
<path d="" fill="#060000" transform="translate(0,0)"/>
<path d="" fill="#D6733E" transform="translate(0,0)"/>
<path d="" fill="#D9733E" transform="translate(0,0)"/>
<path d="" fill="#050100" transform="translate(0,0)"/>
<path d="" fill="#D9733E" transform="translate(0,0)"/>
<path d="" fill="#D7733F" transform="translate(0,0)"/>
<path d="" fill="#000000" transform="translate(0,0)"/>
<path d="" fill="#000000" transform="translate(0,0)"/>
<path d="" fill="#090300" transform="translate(0,0)"/>
<path d="" fill="#D4703B" transform="translate(0,0)"/>
<path d="" fill="#DB733D" transform="translate(0,0)"/>
<path d="" fill="#AF5D34" transform="translate(0,0)"/>
<path d="" fill="#000000" transform="translate(0,0)"/>
<path d="" fill="#D9743F" transform="translate(0,0)"/>
<path d="" fill="#DA723D" transform="translate(0,0)"/>
<path d="" fill="#000000" transform="translate(0,0)"/>
<path d="" fill="#1E1008" transform="translate(0,0)"/>
<path d="" fill="#D9723C" transform="translate(0,0)"/>
<path d="" fill="#DA723C" transform="translate(0,0)"/>
<path d="" fill="#000000" transform="translate(0,0)"/>
<path d="" fill="#2C170D" transform="translate(0,0)"/>
<path d="" fill="#040100" transform="translate(0,0)"/>
<path d="" fill="#D9743C" transform="translate(0,0)"/>
<path d="" fill="#A1542E" transform="translate(0,0)"/>
<path d="" fill="#000000" transform="translate(0,0)"/>
<path d="" fill="#000000" transform="translate(0,0)"/>
<path d="" fill="#0F0902" transform="translate(0,0)"/>
<path d="" fill="#DA753F" transform="translate(0,0)"/>
<path d="" fill="#D8723F" transform="translate(0,0)"/>
<path d="" fill="#000000" transform="translate(0,0)"/>
<path d="" fill="#CD6C3B" transform="translate(0,0)"/>
<path d="" fill="#110804" transform="translate(0,0)"/>
<path d="" fill="#6B361A" transform="translate(0,0)"/>
<path d="" fill="#DA743E" transform="translate(0,0)"/>
<path d="" fill="#D8733C" transform="translate(0,0)"/>
<path d="" fill="#DA7440" transform="translate(0,0)"/>
<path d="" fill="#4E2A18" transform="translate(0,0)"/>
<path d="" fill="#DC753E" transform="translate(0,0)"/>
<path d="" fill="#DB703C" transform="translate(0,0)"/>
<path d="" fill="#854224" transform="translate(0,0)"/>
<path d="" fill="#DA713C" transform="translate(0,0)"/>
<path d="" fill="#D8753D" transform="translate(0,0)"/>
<path d="" fill="#7A3E20" transform="translate(0,0)"/>
<path d="" fill="#D97441" transform="translate(0,0)"/>
<path d="" fill="#71381D" transform="translate(0,0)"/>
<path d="" fill="#DA723C" transform="translate(0,0)"/>
<path d="" fill="#CD6E3E" transform="translate(0,0)"/>
<path d="" fill="#D9733D" transform="translate(0,0)"/>
<path d="" fill="#6A371F" transform="translate(0,0)"/>
<path d="" fill="#050000" transform="translate(0,0)"/>
<path d="" fill="#D9733F" transform="translate(0,0)"/>
<path d="" fill="#D9753D" transform="translate(0,0)"/>
<path d="" fill="#000000" transform="translate(0,0)"/>
<path d="" fill="#110902" transform="translate(0,0)"/>
<path d="" fill="#070200" transform="translate(0,0)"/>
<path d="" fill="#26140D" transform="translate(0,0)"/>
<path d="" fill="#DD753D" transform="translate(0,0)"/>
<path d="" fill="#D9743F" transform="translate(0,0)"/>
<path d="" fill="#DA753E" transform="translate(0,0)"/>
<path d="" fill="#211108" transform="translate(0,0)"/>
<path d="" fill="#DA743F" transform="translate(0,0)"/>
<path d="" fill="#DD753F" transform="translate(0,0)"/>
<path d="" fill="#D9733E" transform="translate(0,0)"/>
<path d="" fill="#DA743E" transform="translate(0,0)"/>
<path d="" fill="#D9743C" transform="translate(0,0)"/>
<path d="" fill="#000000" transform="translate(0,0)"/>
<path d="" fill="#1E0E07" transform="translate(0,0)"/>
<path d="" fill="#D9753D" transform="translate(0,0)"/>
<path d="" fill="#D7733B" transform="translate(0,0)"/>
<path d="" fill="#7C3E1F" transform="translate(0,0)"/>
<path d="" fill="#DB733D" transform="translate(0,0)"/>
<path d="" fill="#753D1E" transform="translate(0,0)"/>
<path d="" fill="#D9723B" transform="translate(0,0)"/>
<path d="" fill="#BB6535" transform="translate(0,0)"/>
<path d="" fill="#D3723C" transform="translate(0,0)"/>
<path d="" fill="#DB733E" transform="translate(0,0)"/>
<path d="" fill="#150A04" transform="translate(0,0)"/>
<path d="" fill="#D5713C" transform="translate(0,0)"/>
<path d="" fill="#D7733E" transform="translate(0,0)"/>
<path d="" fill="#C3683B" transform="translate(0,0)"/>
<path d="" fill="#251309" transform="translate(0,0)"/>
<path d="" fill="#9B532F" transform="translate(0,0)"/>
<path d="" fill="#DB7240" transform="translate(0,0)"/>
<path d="" fill="#C26638" transform="translate(0,0)"/>
<path d="" fill="#D1723B" transform="translate(0,0)"/>
<path d="" fill="#070200" transform="translate(0,0)"/>
<path d="" fill="#7F4020" transform="translate(0,0)"/>
<path d="" fill="#854523" transform="translate(0,0)"/>
<path d="" fill="#D97543" transform="translate(0,0)"/>
<path d="" fill="#DB753E" transform="translate(0,0)"/>
<path d="" fill="#DA7540" transform="translate(0,0)"/>
<path d="" fill="#0A0101" transform="translate(0,0)"/>
<path d="" fill="#000000" transform="translate(0,0)"/>
<path d="" fill="#DA733C" transform="translate(0,0)"/>
<path d="" fill="#D4713A" transform="translate(0,0)"/>
<path d="" fill="#040100" transform="translate(0,0)"/>
<path d="" fill="#CD6D3B" transform="translate(0,0)"/>
<path d="" fill="#D06D3B" transform="translate(0,0)"/>
<path d="" fill="#DC7740" transform="translate(0,0)"/>
<path d="" fill="#CD6D3D" transform="translate(0,0)"/>
<path d="" fill="#000000" transform="translate(0,0)"/>
<path d="" fill="#D06E39" transform="translate(0,0)"/>
<path d="" fill="#D06D3D" transform="translate(0,0)"/>
<path d="" fill="#7C4427" transform="translate(0,0)"/>
<path d="" fill="#000000" transform="translate(0,0)"/>
<path d="" fill="#CB6D3B" transform="translate(0,0)"/>
<path d="" fill="#E0763E" transform="translate(0,0)"/>
<path d="" fill="#CC6D3B" transform="translate(0,0)"/>
<path d="" fill="#000000" transform="translate(0,0)"/>
<path d="" fill="#DA7640" transform="translate(0,0)"/>
<path d="" fill="#CB6B3A" transform="translate(0,0)"/>
<path d="" fill="#934F2D" transform="translate(0,0)"/>
<path d="" fill="#C16637" transform="translate(0,0)"/>
<path d="" fill="#E07741" transform="translate(0,0)"/>
<path d="" fill="#D6733D" transform="translate(0,0)"/>
<path d="" fill="#CA6B39" transform="translate(0,0)"/>
<path d="" fill="#CE7140" transform="translate(0,0)"/>
<path d="" fill="#000000" transform="translate(0,0)"/>
<path d="" fill="#CD6F40" transform="translate(0,0)"/>
<path d="" fill="#130804" transform="translate(0,0)"/>
<path d="" fill="#160A06" transform="translate(0,0)"/>
<path d="" fill="#D6733F" transform="translate(0,0)"/>
<path d="" fill="#E17641" transform="translate(0,0)"/>
<path d="" fill="#E07743" transform="translate(0,0)"/>
<path d="" fill="#D9713C" transform="translate(0,0)"/>
<path d="" fill="#0E0703" transform="translate(0,0)"/>
<path d="" fill="#D3703D" transform="translate(0,0)"/>
<path d="" fill="#E07641" transform="translate(0,0)"/>
<path d="" fill="#CA6C3D" transform="translate(0,0)"/>
<path d="" fill="#E07540" transform="translate(0,0)"/>
<path d="" fill="#D06F3D" transform="translate(0,0)"/>
<path d="" fill="#D4743D" transform="translate(0,0)"/>
<path d="" fill="#DA743F" transform="translate(0,0)"/>
<path d="" fill="#D9723E" transform="translate(0,0)"/>
<path d="" fill="#D7743F" transform="translate(0,0)"/>
<path d="" fill="#B35E33" transform="translate(0,0)"/>
<path d="" fill="#D6723D" transform="translate(0,0)"/>
<path d="" fill="#D6723C" transform="translate(0,0)"/>
<path d="" fill="#D7723F" transform="translate(0,0)"/>
<path d="" fill="#D7733F" transform="translate(0,0)"/>
<path d="" fill="#603420" transform="translate(0,0)"/>
<path d="" fill="#A15632" transform="translate(0,0)"/>
<path d="" fill="#DA733D" transform="translate(0,0)"/>
<path d="" fill="#1C0F08" transform="translate(0,0)"/>
<path d="" fill="#DC7442" transform="translate(0,0)"/>
<path d="" fill="#C06636" transform="translate(0,0)"/>
<path d="" fill="#BC6235" transform="translate(0,0)"/>
<path d="" fill="#1E0D07" transform="translate(0,0)"/>
<path d="" fill="#D8733D" transform="translate(0,0)"/>
<path d="" fill="#DE7741" transform="translate(0,0)"/>
<path d="" fill="#0F0703" transform="translate(0,0)"/>
<path d="" fill="#CA6A3C" transform="translate(0,0)"/>
<path d="" fill="#6D3B22" transform="translate(0,0)"/>
<path d="" fill="#D6743D" transform="translate(0,0)"/>
<path d="" fill="#DB7541" transform="translate(0,0)"/>
<path d="" fill="#D8733D" transform="translate(0,0)"/>
<path d="" fill="#C66A3D" transform="translate(0,0)"/>
<path d="" fill="#C56A3A" transform="translate(0,0)"/>
<path d="" fill="#DE733D" transform="translate(0,0)"/>
<path d="" fill="#D9733D" transform="translate(0,0)"/>
<path d="" fill="#D5733C" transform="translate(0,0)"/>
<path d="" fill="#341B11" transform="translate(0,0)"/>
<path d="" fill="#DB7340" transform="translate(0,0)"/>
<path d="" fill="#D9753E" transform="translate(0,0)"/>
<path d="" fill="#DA733F" transform="translate(0,0)"/>
<path d="" fill="#DB743F" transform="translate(0,0)"/>
<path d="" fill="#D9753D" transform="translate(0,0)"/>
<path d="" fill="#DB7440" transform="translate(0,0)"/>
<path d="" fill="#000000" transform="translate(0,0)"/>
<path d="" fill="#D8723D" transform="translate(0,0)"/>
<path d="" fill="#C7693B" transform="translate(0,0)"/>
<path d="" fill="#DB733D" transform="translate(0,0)"/>
<path d="" fill="#DD7440" transform="translate(0,0)"/>
<path d="" fill="#DE7742" transform="translate(0,0)"/>
<path d="" fill="#D8753D" transform="translate(0,0)"/>
<path d="" fill="#D77340" transform="translate(0,0)"/>
<path d="" fill="#DA7440" transform="translate(0,0)"/>
<path d="" fill="#DC723E" transform="translate(0,0)"/>
<path d="" fill="#DE743E" transform="translate(0,0)"/>
<path d="" fill="#794126" transform="translate(0,0)"/>
<path d="" fill="#B56036" transform="translate(0,0)"/>
<path d="" fill="#000000" transform="translate(0,0)"/>
<path d="" fill="#C86A3B" transform="translate(0,0)"/>
<path d="" fill="#DE7642" transform="translate(0,0)"/>
<path d="" fill="#C76A3B" transform="translate(0,0)"/>
<path d="" fill="#CF6C3B" transform="translate(0,0)"/>
<path d="" fill="#DC7740" transform="translate(0,0)"/>
<path d="" fill="#AB5B33" transform="translate(0,0)"/>
<path d="" fill="#CE6D3D" transform="translate(0,0)"/>
<path d="" fill="#190D07" transform="translate(0,0)"/>
<path d="" fill="#180B06" transform="translate(0,0)"/>
<path d="" fill="#CD6D3B" transform="translate(0,0)"/>
<path d="" fill="#D6723C" transform="translate(0,0)"/>
<path d="" fill="#050000" transform="translate(0,0)"/>
<path d="" fill="#060100" transform="translate(0,0)"/>
<path d="" fill="#844729" transform="translate(0,0)"/>
<path d="" fill="#020000" transform="translate(0,0)"/>
<path d="" fill="#000000" transform="translate(0,0)"/>
<path d="" fill="#000000" transform="translate(0,0)"/>
<path d="" fill="#180B06" transform="translate(0,0)"/>
<path d="" fill="#D66F3B" transform="translate(0,0)"/>
<path d="" fill="#D2713E" transform="translate(0,0)"/>
<path d="" fill="#110704" transform="translate(0,0)"/>
<path d="" fill="#000000" transform="translate(0,0)"/>
<path d="" fill="#000000" transform="translate(0,0)"/>
<path d="" fill="#000000" transform="translate(0,0)"/>
<path d="" fill="#D06D3D" transform="translate(0,0)"/>
<path d="" fill="#0A0400" transform="translate(0,0)"/>
<path d="" fill="#D16E3D" transform="translate(0,0)"/>
<path d="" fill="#D06E3C" transform="translate(0,0)"/>
<path d="" fill="#D2703D" transform="translate(0,0)"/>
<path d="" fill="#CF6F3C" transform="translate(0,0)"/>
<path d="" fill="#CD6C3D" transform="translate(0,0)"/>
<path d="" fill="#CE6F3B" transform="translate(0,0)"/>
<path d="" fill="#D3703A" transform="translate(0,0)"/>
<path d="" fill="#CB6B39" transform="translate(0,0)"/>
<path d="" fill="#CE6D3C" transform="translate(0,0)"/>
<path d="" fill="#0F0803" transform="translate(0,0)"/>
<path d="" fill="#000000" transform="translate(0,0)"/>
<path d="" fill="#CB693B" transform="translate(0,0)"/>
<path d="" fill="#C8683D" transform="translate(0,0)"/>
<path d="" fill="#0C0401" transform="translate(0,0)"/>
<path d="" fill="#A5562F" transform="translate(0,0)"/>
<path d="" fill="#000000" transform="translate(0,0)"/>
<path d="" fill="#874829" transform="translate(0,0)"/>
<path d="" fill="#D4703D" transform="translate(0,0)"/>
<path d="" fill="#B76136" transform="translate(0,0)"/>
<path d="" fill="#BE6736" transform="translate(0,0)"/>
<path d="" fill="#B45F34" transform="translate(0,0)"/>
<path d="" fill="#B05C36" transform="translate(0,0)"/>
<path d="" fill="#944F2D" transform="translate(0,0)"/>
<path d="" fill="#100804" transform="translate(0,0)"/>
<path d="" fill="#000000" transform="translate(0,0)"/>
<path d="" fill="#CF6E3C" transform="translate(0,0)"/>
<path d="" fill="#482715" transform="translate(0,0)"/>
<path d="" fill="#8D4C29" transform="translate(0,0)"/>
<path d="" fill="#8F4C2B" transform="translate(0,0)"/>
<path d="" fill="#9A532F" transform="translate(0,0)"/>
<path d="" fill="#000000" transform="translate(0,0)"/>
<path d="" fill="#D0703A" transform="translate(0,0)"/>
<path d="" fill="#000000" transform="translate(0,0)"/>
<path d="" fill="#000000" transform="translate(0,0)"/>
<path d="" fill="#000000" transform="translate(0,0)"/>
<path d="" fill="#130804" transform="translate(0,0)"/>
<path d="" fill="#391C10" transform="translate(0,0)"/>
<path d="" fill="#D1723C" transform="translate(0,0)"/>
<path d="" fill="#CB6D3B" transform="translate(0,0)"/>
<path d="" fill="#8B4B2B" transform="translate(0,0)"/>
<path d="" fill="#040100" transform="translate(0,0)"/>
<path d="" fill="#61331C" transform="translate(0,0)"/>
<path d="" fill="#190D06" transform="translate(0,0)"/>
<path d="" fill="#6E3A1F" transform="translate(0,0)"/>
<path d="" fill="#C96A3B" transform="translate(0,0)"/>
<path d="" fill="#5C321A" transform="translate(0,0)"/>
<path d="" fill="#4F2B17" transform="translate(0,0)"/>
<path d="" fill="#CB6B3A" transform="translate(0,0)"/>
<path d="" fill="#CC6F3B" transform="translate(0,0)"/>
<path d="" fill="#CB6D3C" transform="translate(0,0)"/>
<path d="" fill="#000000" transform="translate(0,0)"/>
<path d="" fill="#000000" transform="translate(0,0)"/>
<path d="" fill="#CD6D3D" transform="translate(0,0)"/>
<path d="" fill="#0F0500" transform="translate(0,0)"/>
<path d="" fill="#000000" transform="translate(0,0)"/>
<path d="" fill="#CB6E3A" transform="translate(0,0)"/>
<path d="" fill="#CA6B3A" transform="translate(0,0)"/>
<path d="" fill="#221208" transform="translate(0,0)"/>
<path d="" fill="#371E10" transform="translate(0,0)"/>
<path d="" fill="#61321B" transform="translate(0,0)"/>
<path d="" fill="#BD6437" transform="translate(0,0)"/>
<path d="" fill="#000000" transform="translate(0,0)"/>
<path d="" fill="#462415" transform="translate(0,0)"/>
<path d="" fill="#080300" transform="translate(0,0)"/>
<path d="" fill="#914D2A" transform="translate(0,0)"/>
<path d="" fill="#804325" transform="translate(0,0)"/>
<path d="" fill="#9C532F" transform="translate(0,0)"/>
<path d="" fill="#010000" transform="translate(0,0)"/>
<path d="" fill="#1E0E07" transform="translate(0,0)"/>
<path d="" fill="#371F10" transform="translate(0,0)"/>
<path d="" fill="#442313" transform="translate(0,0)"/>
<path d="" fill="#764222" transform="translate(0,0)"/>
<path d="" fill="#7D4325" transform="translate(0,0)"/>
<path d="" fill="#62331C" transform="translate(0,0)"/>
<path d="" fill="#180D06" transform="translate(0,0)"/>
<path d="" fill="#24140A" transform="translate(0,0)"/>
<path d="" fill="#1C0D06" transform="translate(0,0)"/>
<path d="" fill="#593019" transform="translate(0,0)"/>
<path d="" fill="#331A0C" transform="translate(0,0)"/>
<path d="" fill="#3D1F10" transform="translate(0,0)"/>
<path d="" fill="#140A04" transform="translate(0,0)"/>
<path d="" fill="#000000" transform="translate(0,0)"/>
<path d="" fill="#432212" transform="translate(0,0)"/>
<path d="" fill="#1F0E06" transform="translate(0,0)"/>
<path d="" fill="#2E190D" transform="translate(0,0)"/>
<path d="" fill="#4E2B15" transform="translate(0,0)"/>
<path d="" fill="#381E11" transform="translate(0,0)"/>
<path d="" fill="#000000" transform="translate(0,0)"/>
<path d="" fill="#000000" transform="translate(0,0)"/>
<path d="" fill="#000000" transform="translate(0,0)"/>
<path d="" fill="#000000" transform="translate(0,0)"/>
<path d="" fill="#000000" transform="translate(0,0)"/>
<path d="" fill="#000000" transform="translate(0,0)"/>
<path d="" fill="#000000" transform="translate(0,0)"/>
<path d="" fill="#1D0E06" transform="translate(0,0)"/>
<path d="" fill="#000000" transform="translate(0,0)"/>
<path d="" fill="#010000" transform="translate(0,0)"/>
<path d="" fill="#000000" transform="translate(0,0)"/>
<path d="" fill="#080300" transform="translate(0,0)"/>
<path d="" fill="#000000" transform="translate(0,0)"/>
<path d="" fill="#000000" transform="translate(0,0)"/>
<path d="" fill="#000000" transform="translate(0,0)"/>
<path d="" fill="#28120C" transform="translate(0,0)"/>
<path d="" fill="#000000" transform="translate(0,0)"/>
<path d="" fill="#000000" transform="translate(0,0)"/>
<path d="" fill="#000000" transform="translate(0,0)"/>
<path d="" fill="#000000" transform="translate(0,0)"/>
<path d="" fill="#080301" transform="translate(0,0)"/>
<path d="" fill="#090300" transform="translate(0,0)"/>
<path d="" fill="#000000" transform="translate(0,0)"/>
<path d="" fill="#000000" transform="translate(0,0)"/>
<path d="" fill="#000000" transform="translate(0,0)"/>
<path d="" fill="#000000" transform="translate(0,0)"/>
<path d="" fill="#0D0502" transform="translate(0,0)"/>
<path d="" fill="#000000" transform="translate(0,0)"/>
<path d="" fill="#020000" transform="translate(0,0)"/>
<path d="" fill="#000000" transform="translate(0,0)"/>
<path d="" fill="#000000" transform="translate(0,0)"/>
<path d="" fill="#160A03" transform="translate(0,0)"/>
<path d="" fill="#180A06" transform="translate(0,0)"/>
<path d="" fill="#110703" transform="translate(0,0)"/>
<path d="" fill="#040000" transform="translate(0,0)"/>
<path d="" fill="#030100" transform="translate(0,0)"/>
<path d="" fill="#000000" transform="translate(0,0)"/>
<path d="" fill="#000000" transform="translate(0,0)"/>
<path d="" fill="#000000" transform="translate(0,0)"/>
<path d="" fill="#020000" transform="translate(0,0)"/>
<path d="" fill="#000000" transform="translate(0,0)"/>
<path d="" fill="#010000" transform="translate(0,0)"/>
<path d="" fill="#000000" transform="translate(0,0)"/>
<path d="" fill="#0F0603" transform="translate(0,0)"/>
<path d="" fill="#000000" transform="translate(0,0)"/>
<path d="" fill="#030000" transform="translate(0,0)"/>
<path d="" fill="#000000" transform="translate(0,0)"/>
<path d="" fill="#000000" transform="translate(0,0)"/>
<path d="" fill="#000000" transform="translate(0,0)"/>
<path d="" fill="#010000" transform="translate(0,0)"/>
<path d="" fill="#050200" transform="translate(0,0)"/>
<path d="" fill="#0B0502" transform="translate(0,0)"/>
<path d="" fill="#000000" transform="translate(0,0)"/>
<path d="" fill="#0A0300" transform="translate(0,0)"/>
<path d="" fill="#080100" transform="translate(0,0)"/>
<path d="" fill="#000000" transform="translate(0,0)"/>
<path d="" fill="#000000" transform="translate(0,0)"/>
<path d="" fill="#000000" transform="translate(0,0)"/>
<path d="" fill="#000000" transform="translate(0,0)"/>
<path d="" fill="#030000" transform="translate(0,0)"/>
<path d="" fill="#080301" transform="translate(0,0)"/>
<path d="" fill="#000000" transform="translate(0,0)"/>
<path d="" fill="#000000" transform="translate(0,0)"/>
<path d="" fill="#000000" transform="translate(0,0)"/>
<path d="" fill="#000000" transform="translate(0,0)"/>
<path d="" fill="#000000" transform="translate(0,0)"/>
<path d="" fill="#020000" transform="translate(0,0)"/>
<path d="" fill="#030000" transform="translate(0,0)"/>
<path d="" fill="#000000" transform="translate(0,0)"/>
<path d="" fill="#000000" transform="translate(0,0)"/>
<path d="" fill="#000000" transform="translate(0,0)"/>
<path d="" fill="#000000" transform="translate(0,0)"/>
<path d="" fill="#000000" transform="translate(0,0)"/>
<path d="" fill="#000000" transform="translate(0,0)"/>
<path d="" fill="#000000" transform="translate(0,0)"/>
<path d="" fill="#010000" transform="translate(0,0)"/>
<path d="" fill="#000000" transform="translate(0,0)"/>
<path d="" fill="#000000" transform="translate(0,0)"/>
<path d="" fill="#000000" transform="translate(0,0)"/>
<path d="" fill="#000000" transform="translate(0,0)"/>
<path d="" fill="#000000" transform="translate(0,0)"/>
<path d="" fill="#010000" transform="translate(0,0)"/>
<path d="" fill="#000000" transform="translate(0,0)"/>
<path d="" fill="#000000" transform="translate(0,0)"/>
<path d="" fill="#000000" transform="translate(0,0)"/>
<path d="" fill="#000000" transform="translate(0,0)"/>
<path d="" fill="#000000" transform="translate(0,0)"/>
<path d="" fill="#000000" transform="translate(0,0)"/>
<path d="" fill="#000000" transform="translate(0,0)"/>
<path d="" fill="#000000" transform="translate(0,0)"/>
<path d="" fill="#000100" transform="translate(0,0)"/>
<path d="" fill="#000000" transform="translate(0,0)"/>
<path d="" fill="#000000" transform="translate(0,0)"/>
<path d="" fill="#000000" transform="translate(0,0)"/>
<path d="" fill="#000000" transform="translate(0,0)"/>
<path d="" fill="#000000" transform="translate(0,0)"/>
<path d="" fill="#000000" transform="translate(0,0)"/>
<path d="" fill="#000000" transform="translate(0,0)"/>
<path d="" fill="#010000" transform="translate(0,0)"/>
<path d="" fill="#000000" transform="translate(0,0)"/>
<path d="" fill="#000000" transform="translate(0,0)"/>
<path d="" fill="#000000" transform="translate(0,0)"/>
<path d="" fill="#000000" transform="translate(0,0)"/>
<path d="" fill="#000000" transform="translate(0,0)"/>
<path d="" fill="#000000" transform="translate(0,0)"/>
<path d="" fill="#000000" transform="translate(0,0)"/>
<path d="" fill="#000000" transform="translate(0,0)"/>
<path d="" fill="#000000" transform="translate(0,0)"/>
<path d="" fill="#000000" transform="translate(0,0)"/>
<path d="" fill="#000000" transform="translate(0,0)"/>
<path d="" fill="#000000" transform="translate(0,0)"/>
<path d="" fill="#000000" transform="translate(0,0)"/>
<path d="" fill="#000000" transform="translate(0,0)"/>
<path d="" fill="#000000" transform="translate(0,0)"/>
<path d="" fill="#000000" transform="translate(0,0)"/>
<path d="" fill="#000000" transform="translate(0,0)"/>
<path d="" fill="#000000" transform="translate(0,0)"/>
<path d="" fill="#000000" transform="translate(0,0)"/>
<path d="" fill="#010000" transform="translate(0,0)"/>
<path d="" fill="#000000" transform="translate(0,0)"/>
<path d="" fill="#000000" transform="translate(0,0)"/>
<path d="" fill="#000000" transform="translate(0,0)"/>
<path d="" fill="#000000" transform="translate(0,0)"/>
<path d="" fill="#000000" transform="translate(0,0)"/>
<path d="" fill="#000000" transform="translate(0,0)"/>
<path d="" fill="#000000" transform="translate(0,0)"/>
<path d="" fill="#000000" transform="translate(0,0)"/>
<path d="" fill="#000000" transform="translate(0,0)"/>
<path d="" fill="#000000" transform="translate(0,0)"/>
<path d="" fill="#000000" transform="translate(0,0)"/>
<path d="" fill="#000000" transform="translate(0,0)"/>
<path d="" fill="#000000" transform="translate(0,0)"/>
<path d="" fill="#000000" transform="translate(0,0)"/>
<path d="" fill="#000000" transform="translate(0,0)"/>
<path d="" fill="#000000" transform="translate(0,0)"/>
<path d="" fill="#000000" transform="translate(0,0)"/>
<path d="" fill="#000000" transform="translate(0,0)"/>
<path d="" fill="#000000" transform="translate(0,0)"/>
<path d="" fill="#000000" transform="translate(0,0)"/>
<path d="" fill="#000000" transform="translate(0,0)"/>
<path d="" fill="#000000" transform="translate(0,0)"/>
<path d="" fill="#000000" transform="translate(0,0)"/>
<path d="" fill="#000000" transform="translate(0,0)"/>
<path d="" fill="#000000" transform="translate(0,0)"/>
<path d="" fill="#000000" transform="translate(0,0)"/>
<path d="" fill="#000000" transform="translate(0,0)"/>
<path d="" fill="#000000" transform="translate(0,0)"/>
<path d="" fill="#000000" transform="translate(0,0)"/>
<path d="" fill="#000000" transform="translate(0,0)"/>
<path d="" fill="#000000" transform="translate(0,0)"/>
<path d="" fill="#000000" transform="translate(0,0)"/>
<path d="" fill="#000000" transform="translate(0,0)"/>
<path d="" fill="#000000" transform="translate(0,0)"/>
<path d="" fill="#000001" transform="translate(0,0)"/>
<path d="" fill="#000000" transform="translate(0,0)"/>
<path d="" fill="#000000" transform="translate(0,0)"/>
<path d="" fill="#000000" transform="translate(0,0)"/>
<path d="" fill="#000000" transform="translate(0,0)"/>
<path d="" fill="#000000" transform="translate(0,0)"/>
<path d="" fill="#000000" transform="translate(0,0)"/>
<path d="" fill="#000100" transform="translate(0,0)"/>
<path d="" fill="#000000" transform="translate(0,0)"/>
<path d="" fill="#000000" transform="translate(0,0)"/>
<path d="" fill="#000000" transform="translate(0,0)"/>
<path d="" fill="#000000" transform="translate(0,0)"/>
</svg>
